<mxfile host="app.diagrams.net" modified="2023-07-28T16:13:56.177Z" agent="Mozilla/5.0 (Windows NT 10.0; Win64; x64) AppleWebKit/537.36 (KHTML, like Gecko) Chrome/115.0.0.0 Safari/537.36" etag="fYmFs9F-tE9ROwpJGHlf" version="21.6.5" type="github">
  <diagram name="Page-1" id="gfGlwEMGmDlHoKh-awRl">
    <mxGraphModel dx="1259" dy="666" grid="1" gridSize="10" guides="1" tooltips="1" connect="1" arrows="1" fold="1" page="1" pageScale="1" pageWidth="850" pageHeight="1100" math="0" shadow="0">
      <root>
        <mxCell id="0" />
        <mxCell id="1" parent="0" />
        <mxCell id="BUs_5w1TpyVjr6DcVBMl-1" value="" style="edgeStyle=orthogonalEdgeStyle;rounded=0;orthogonalLoop=1;jettySize=auto;html=1;" edge="1" parent="1" source="BUs_5w1TpyVjr6DcVBMl-2" target="BUs_5w1TpyVjr6DcVBMl-3">
          <mxGeometry relative="1" as="geometry" />
        </mxCell>
        <mxCell id="BUs_5w1TpyVjr6DcVBMl-2" value="" style="ellipse;fillColor=strokeColor;html=1;" vertex="1" parent="1">
          <mxGeometry x="405" y="20" width="30" height="30" as="geometry" />
        </mxCell>
        <mxCell id="BUs_5w1TpyVjr6DcVBMl-3" value="Forwarding&amp;nbsp; Order No" style="rounded=1;whiteSpace=wrap;html=1;arcSize=40;fontColor=#000000;fillColor=#ffffc0;strokeColor=#ff0000;" vertex="1" parent="1">
          <mxGeometry x="360" y="80" width="120" height="40" as="geometry" />
        </mxCell>
        <mxCell id="BUs_5w1TpyVjr6DcVBMl-4" value="" style="edgeStyle=orthogonalEdgeStyle;html=1;verticalAlign=bottom;endArrow=open;endSize=8;strokeColor=#ff0000;rounded=0;entryX=0.5;entryY=0;entryDx=0;entryDy=0;" edge="1" parent="1" source="BUs_5w1TpyVjr6DcVBMl-3" target="BUs_5w1TpyVjr6DcVBMl-10">
          <mxGeometry relative="1" as="geometry">
            <mxPoint x="425" y="180" as="targetPoint" />
          </mxGeometry>
        </mxCell>
        <mxCell id="BUs_5w1TpyVjr6DcVBMl-5" value="Forwarding&amp;nbsp; Order Date" style="rounded=1;whiteSpace=wrap;html=1;arcSize=40;fontColor=#000000;fillColor=#ffffc0;strokeColor=#ff0000;" vertex="1" parent="1">
          <mxGeometry x="360" y="290" width="120" height="40" as="geometry" />
        </mxCell>
        <mxCell id="BUs_5w1TpyVjr6DcVBMl-6" value="appears automatically" style="shape=note2;boundedLbl=1;whiteSpace=wrap;html=1;size=25;verticalAlign=top;align=center;" vertex="1" parent="1">
          <mxGeometry x="550" y="70" width="120" height="60" as="geometry" />
        </mxCell>
        <mxCell id="BUs_5w1TpyVjr6DcVBMl-7" value="" style="endArrow=none;dashed=1;html=1;dashPattern=1 3;strokeWidth=2;rounded=0;entryX=0;entryY=0.5;entryDx=0;entryDy=0;entryPerimeter=0;exitX=1;exitY=0.5;exitDx=0;exitDy=0;" edge="1" parent="1" source="BUs_5w1TpyVjr6DcVBMl-3" target="BUs_5w1TpyVjr6DcVBMl-6">
          <mxGeometry width="50" height="50" relative="1" as="geometry">
            <mxPoint x="500" y="250" as="sourcePoint" />
            <mxPoint x="550" y="200" as="targetPoint" />
          </mxGeometry>
        </mxCell>
        <mxCell id="BUs_5w1TpyVjr6DcVBMl-8" value="" style="edgeStyle=orthogonalEdgeStyle;rounded=0;orthogonalLoop=1;jettySize=auto;html=1;entryX=0;entryY=0.5;entryDx=0;entryDy=0;" edge="1" parent="1" source="BUs_5w1TpyVjr6DcVBMl-10" target="BUs_5w1TpyVjr6DcVBMl-13">
          <mxGeometry relative="1" as="geometry">
            <mxPoint x="260" y="250" as="targetPoint" />
          </mxGeometry>
        </mxCell>
        <mxCell id="BUs_5w1TpyVjr6DcVBMl-9" value="yse" style="edgeLabel;html=1;align=center;verticalAlign=middle;resizable=0;points=[];" vertex="1" connectable="0" parent="BUs_5w1TpyVjr6DcVBMl-8">
          <mxGeometry x="-0.7629" y="1" relative="1" as="geometry">
            <mxPoint as="offset" />
          </mxGeometry>
        </mxCell>
        <mxCell id="BUs_5w1TpyVjr6DcVBMl-10" value="Modify" style="rhombus;whiteSpace=wrap;html=1;fontColor=#000000;fillColor=#ffffc0;strokeColor=#ff0000;" vertex="1" parent="1">
          <mxGeometry x="380" y="180" width="80" height="40" as="geometry" />
        </mxCell>
        <mxCell id="BUs_5w1TpyVjr6DcVBMl-11" value="" style="edgeStyle=orthogonalEdgeStyle;html=1;align=left;verticalAlign=bottom;endArrow=open;endSize=8;strokeColor=#ff0000;rounded=0;entryX=0.5;entryY=0;entryDx=0;entryDy=0;exitX=0.5;exitY=1;exitDx=0;exitDy=0;" edge="1" parent="1" source="BUs_5w1TpyVjr6DcVBMl-10" target="BUs_5w1TpyVjr6DcVBMl-5">
          <mxGeometry x="-1" relative="1" as="geometry">
            <mxPoint x="100" y="220" as="targetPoint" />
            <mxPoint x="380" y="230" as="sourcePoint" />
          </mxGeometry>
        </mxCell>
        <mxCell id="BUs_5w1TpyVjr6DcVBMl-12" value="no" style="edgeLabel;html=1;align=center;verticalAlign=middle;resizable=0;points=[];" vertex="1" connectable="0" parent="BUs_5w1TpyVjr6DcVBMl-11">
          <mxGeometry x="-0.4981" relative="1" as="geometry">
            <mxPoint as="offset" />
          </mxGeometry>
        </mxCell>
        <mxCell id="BUs_5w1TpyVjr6DcVBMl-13" value="Modify Forwarding&amp;nbsp; Order No" style="rounded=1;whiteSpace=wrap;html=1;arcSize=40;fontColor=#000000;fillColor=#ffffc0;strokeColor=#ff0000;" vertex="1" parent="1">
          <mxGeometry x="180" y="290" width="120" height="40" as="geometry" />
        </mxCell>
        <mxCell id="BUs_5w1TpyVjr6DcVBMl-14" value="" style="edgeStyle=orthogonalEdgeStyle;html=1;verticalAlign=bottom;endArrow=open;endSize=8;strokeColor=#ff0000;rounded=0;entryX=0;entryY=0.5;entryDx=0;entryDy=0;" edge="1" parent="1" source="BUs_5w1TpyVjr6DcVBMl-13" target="BUs_5w1TpyVjr6DcVBMl-5">
          <mxGeometry relative="1" as="geometry">
            <mxPoint x="160" y="370" as="targetPoint" />
          </mxGeometry>
        </mxCell>
        <mxCell id="BUs_5w1TpyVjr6DcVBMl-15" value="auto" style="shape=note2;boundedLbl=1;whiteSpace=wrap;html=1;size=25;verticalAlign=top;align=center;" vertex="1" parent="1">
          <mxGeometry x="550" y="275" width="120" height="70" as="geometry" />
        </mxCell>
        <mxCell id="BUs_5w1TpyVjr6DcVBMl-16" value="" style="endArrow=none;dashed=1;html=1;dashPattern=1 3;strokeWidth=2;rounded=0;entryX=1;entryY=0.5;entryDx=0;entryDy=0;exitX=0;exitY=0.5;exitDx=0;exitDy=0;exitPerimeter=0;" edge="1" parent="1" source="BUs_5w1TpyVjr6DcVBMl-15" target="BUs_5w1TpyVjr6DcVBMl-5">
          <mxGeometry width="50" height="50" relative="1" as="geometry">
            <mxPoint x="400" y="340" as="sourcePoint" />
            <mxPoint x="450" y="290" as="targetPoint" />
          </mxGeometry>
        </mxCell>
        <mxCell id="BUs_5w1TpyVjr6DcVBMl-19" value="&lt;font style=&quot;font-size: 11px;&quot;&gt;Delivery Note number&lt;/font&gt;" style="rounded=1;whiteSpace=wrap;html=1;arcSize=40;fontColor=#000000;fillColor=#ffffc0;strokeColor=#ff0000;" vertex="1" parent="1">
          <mxGeometry x="360" y="400" width="120" height="40" as="geometry" />
        </mxCell>
        <mxCell id="BUs_5w1TpyVjr6DcVBMl-20" style="edgeStyle=none;rounded=0;html=1;labelBackgroundColor=none;startArrow=none;startFill=0;startSize=5;endArrow=classicThin;endFill=1;endSize=5;jettySize=auto;orthogonalLoop=1;strokeWidth=1;fontFamily=Verdana;fontSize=12" edge="1" parent="1" target="BUs_5w1TpyVjr6DcVBMl-21">
          <mxGeometry relative="1" as="geometry">
            <mxPoint x="426" y="440" as="sourcePoint" />
          </mxGeometry>
        </mxCell>
        <mxCell id="BUs_5w1TpyVjr6DcVBMl-21" value="Delivery Note" style="rounded=0;whiteSpace=wrap;html=1;shadow=0;comic=0;labelBackgroundColor=none;strokeWidth=1;fontFamily=Verdana;fontSize=12;align=center;arcSize=50;" vertex="1" parent="1">
          <mxGeometry x="425" y="470" width="125" height="40" as="geometry" />
        </mxCell>
        <mxCell id="BUs_5w1TpyVjr6DcVBMl-22" style="edgeStyle=none;rounded=0;html=1;dashed=1;labelBackgroundColor=none;startArrow=none;startFill=0;startSize=5;endArrow=oval;endFill=0;endSize=5;jettySize=auto;orthogonalLoop=1;strokeWidth=1;fontFamily=Verdana;fontSize=12" edge="1" parent="1" source="BUs_5w1TpyVjr6DcVBMl-24">
          <mxGeometry relative="1" as="geometry">
            <mxPoint x="402" y="440" as="targetPoint" />
          </mxGeometry>
        </mxCell>
        <mxCell id="BUs_5w1TpyVjr6DcVBMl-23" style="edgeStyle=none;rounded=0;html=1;dashed=1;labelBackgroundColor=none;startArrow=none;startFill=0;startSize=5;endArrow=oval;endFill=0;endSize=5;jettySize=auto;orthogonalLoop=1;strokeWidth=1;fontFamily=Verdana;fontSize=12" edge="1" parent="1" source="BUs_5w1TpyVjr6DcVBMl-24" target="BUs_5w1TpyVjr6DcVBMl-21">
          <mxGeometry relative="1" as="geometry" />
        </mxCell>
        <mxCell id="BUs_5w1TpyVjr6DcVBMl-24" value="&lt;font style=&quot;font-size: 11px;&quot;&gt;Import from Delivery Note number according to its No from DB&lt;/font&gt;" style="shape=note;whiteSpace=wrap;html=1;rounded=0;shadow=0;comic=0;labelBackgroundColor=none;strokeWidth=1;fontFamily=Verdana;fontSize=12;align=center;size=20;" vertex="1" parent="1">
          <mxGeometry x="220" y="470" width="180" height="60" as="geometry" />
        </mxCell>
        <mxCell id="BUs_5w1TpyVjr6DcVBMl-25" value="" style="endArrow=classic;html=1;rounded=0;exitX=0.5;exitY=1;exitDx=0;exitDy=0;entryX=0.5;entryY=0;entryDx=0;entryDy=0;" edge="1" parent="1" source="BUs_5w1TpyVjr6DcVBMl-5" target="BUs_5w1TpyVjr6DcVBMl-19">
          <mxGeometry width="50" height="50" relative="1" as="geometry">
            <mxPoint x="400" y="420" as="sourcePoint" />
            <mxPoint x="450" y="370" as="targetPoint" />
          </mxGeometry>
        </mxCell>
      </root>
    </mxGraphModel>
  </diagram>
</mxfile>
